<?xml version="1.0" standalone="no"?>
<!DOCTYPE svg PUBLIC "-//W3C//DTD SVG 20010904//EN"
 "http://www.w3.org/TR/2001/REC-SVG-20010904/DTD/svg10.dtd">
<svg version="1.0" xmlns="http://www.w3.org/2000/svg"
 width="32.000000pt" height="32.000000pt" viewBox="0 0 32.000000 32.000000"
 preserveAspectRatio="xMidYMid meet">

<g transform="translate(0.000000,32.000000) scale(0.100000,-0.100000)"
fill="#000000" stroke="none">
<path d="M132 308 c2 -6 10 -14 16 -16 7 -2 10 2 6 12 -7 18 -28 22 -22 4z"/>
<path d="M207 314 c-4 -4 -7 -14 -7 -23 0 -11 3 -12 11 -4 6 6 10 16 7 23 -2
6 -7 8 -11 4z"/>
<path d="M105 250 c4 -6 11 -8 16 -5 14 9 11 15 -7 15 -8 0 -12 -5 -9 -10z"/>
<path d="M146 227 c-3 -19 -17 -44 -31 -57 -22 -20 -25 -32 -25 -87 0 -59 2
-64 26 -73 14 -6 49 -10 79 -10 l53 0 26 52 c43 85 32 118 -37 118 -37 0 -39
1 -33 25 8 32 -9 65 -33 65 -13 0 -21 -10 -25 -33z"/>
<path d="M235 250 c4 -6 11 -8 16 -5 14 9 11 15 -7 15 -8 0 -12 -5 -9 -10z"/>
<path d="M20 85 l0 -86 28 3 c27 3 27 3 27 83 0 80 0 80 -27 83 l-28 3 0 -86z"/>
</g>
</svg>
